<?xml version="1.0" encoding="iso-8859-1"?><svg height="800px" width="800px" version="1.1" id="Layer_1" xmlns="http://www.w3.org/2000/svg" viewBox="0 0 511.997 511.997" xml:space="preserve"><path style="fill:#FFF3E6;" d="M446.897,268.557c55.224,40.491,68.995,96.057,30.732,124.106c-29.922,21.948-82.817,20.543-130.877-0.506c-10.088-4.405-19.973-9.696-29.378-15.822c-3.05-1.975-6.063-4.05-9.012-6.215c-34.099-24.998-52.389-55.743-52.389-82.222c0-16.391,7.025-31.15,21.657-41.883c2.747-2.013,5.683-3.823,8.784-5.455C326.652,219.573,395.634,230.965,446.897,268.557z"/><path style="fill:#666666;" d="M317.374,376.335l-0.304,0.468H193.863h-0.013c-9.227,5.949-18.885,11.088-28.745,15.391v0.013c3.202,12.176,7.594,23.543,12.986,33.795l1.43-0.139h152.8l1.443,0.114c5.392-10.265,9.797-21.631,12.986-33.821C336.664,387.752,326.778,382.461,317.374,376.335z"/><path style="fill:#F0C419;" d="M332.322,425.863l1.443,0.114c-17.632,33.517-45.946,55.237-77.843,55.237s-60.199-21.72-77.83-55.212l1.43-0.139L332.322,425.863L332.322,425.863z"/><path style="fill:#F0C419;" d="M317.374,376.335l-0.304,0.468H193.863c3.304-2.126,6.544-4.354,9.721-6.683c34.099-24.998,52.389-55.743,52.389-82.222c0,26.479,18.29,57.224,52.389,82.222C311.311,372.284,314.323,374.36,317.374,376.335z"/><path style="fill:#F0C419;" d="M226.722,124.022c8.772-4.443,18.695-6.936,29.201-6.936c35.782,0,64.793,29.011,64.793,64.806c0,25.011-14.176,46.706-34.922,57.503c-8.936,4.658-19.1,7.291-29.871,7.291c-10.746,0-20.872-2.607-29.795-7.24c-20.796-10.784-35.01-32.517-35.01-57.553C191.116,156.602,205.596,134.705,226.722,124.022z"/><path style="fill:#FFF3E6;" d="M234.316,246.014c14.632,10.733,21.657,25.492,21.657,41.883c0,26.479-18.29,57.224-52.389,82.222c-3.177,2.329-6.417,4.557-9.721,6.683h-0.013c-9.227,5.949-18.885,11.088-28.745,15.391c-48.035,21.011-100.879,22.404-130.789,0.468c-38.263-28.049-24.492-83.615,30.732-124.106c51.262-37.592,120.245-48.984,160.483-27.998C228.633,242.192,231.569,244.002,234.316,246.014z"/><path d="M255.922,259.342c-12.39,0-24.71-2.996-35.627-8.664c-25.803-13.38-41.836-39.739-41.836-68.787c0-29.388,16.301-55.889,42.544-69.162l0,0c10.725-5.431,22.8-8.302,34.919-8.302c42.706,0,77.451,34.75,77.451,77.463c0,28.997-15.993,55.333-41.738,68.73C280.696,256.326,268.344,259.342,255.922,259.342z"/><rect x="239.379" y="30" width="33" height="80" fill="#F0C419"/><rect x="239.379" y="30" width="33" height="12" fill="#333"/><rect x="239.379" y="50" width="33" height="12" fill="#333"/><rect x="239.379" y="70" width="33" height="12" fill="#333"/><path d="M226.722,136.686c-5.936,0-10.92-4.082-12.287-9.596l-26.259-92.858c-1.902-6.726,2.01-13.722,8.736-15.624c6.725-1.906,13.722,2.009,15.624,8.735l26.365,93.234C239.379,131.013,233.712,136.686,226.722,136.686z"/><path d="M286.04,136.696c-6.726,1.901-10.637,8.897-8.736,15.623l26.365-93.247c1.902-6.727,8.894-10.642,15.624-8.736c6.726,1.901,10.637,8.897,8.736,15.623l-26.365,93.247C296.637,133.055,291.563,136.696,286.04,136.696z"/></svg>
