<?xml version="1.0" encoding="iso-8859-1"?><svg height="800px" width="800px" version="1.1" xmlns="http://www.w3.org/2000/svg" viewBox="0 0 512.002 512.002" xml:space="preserve"><path style="fill:#DAEDE2;" d="M440.673,319.98c14.165,65.063,58.748,103.117,58.748,103.117c-0.025,0-0.05-0.013-0.075-0.013c-2.629-0.277-78.825-8.63-152.883-27.965c-8.844-2.315-17.65-4.768-26.292-7.397c-35.538-8.995-73.756-30.934-106.866-64.031c-42.18-42.193-66.233-92.676-68.472-135.334c-17.348-2.503-32.67-11.221-43.677-23.814c-11.662-13.372-18.455-31.097-17.587-50.42c0.113-2.466,0.352-4.894,0.704-7.284c5.082-34.154,34.595-60.585,69.78-61.125c33.714-0.528,62.195,22.229,70.435,53.225c44.52-1.195,99.557,23.197,144.958,68.598c40.671,40.671,64.497,89.078,68.158,130.717C438.245,305.551,439.113,312.835,440.673,319.98z"/><path style="fill:#F78A68;" d="M101.155,164.544l-1.686,0.969l-86.889-30.066l69.604-28.934l2.088,0.327c-0.352,2.39-0.591,4.818-0.704,7.284C82.701,133.446,89.494,151.171,101.155,164.544z"/></svg>
