<?xml version="1.0" encoding="iso-8859-1"?><svg height="800px" width="800px" version="1.1" id="Layer_1" xmlns="http://www.w3.org/2000/svg" viewBox="0 0 512.001 512.001" xml:space="preserve"><path style="fill:#77C4D3;" d="M256.032,298.017c0,10.836-0.488,20.287-1.067,27.594c0.091,6.411-0.068,13.729-0.737,21.535l-0.658-0.057c0,0-66.182,0.749-125.205-13.15c-24.746-7.284-48.947-19.186-68.054-38.293c-66.012-66.012-46.156-192.907-46.156-192.907s126.895-19.856,192.907,46.156C248.282,190.115,256.032,255.049,256.032,298.017z"/><path style="fill:#77C4D3;" d="M497.909,102.738c0,0,19.856,126.895-46.156,192.907c-19.107,19.107-43.308,31.009-68.054,38.293c-59.023,13.899-125.205,13.15-125.205,13.15l-0.658,0.057c-0.669-7.806-0.828-15.124-0.737-21.535c-0.579-7.307-1.067-16.758-1.067-27.594c0-42.968,7.749-107.902,48.97-149.123C371.014,82.882,497.909,102.738,497.909,102.738z"/><path style="fill:#E1EBF7;" d="M410.499,406.815c2.156,26.255-19.89,48.301-46.145,46.145c-25.2-2.054-55.619-9.327-76.439-30.135c-20.605-20.605-27.934-50.627-30.079-75.679l0.658-0.057c0,0,66.182,0.749,125.205-13.15C401.966,354.566,408.558,383.022,410.499,406.815z"/><path style="fill:#E1EBF7;" d="M128.365,333.939c59.023,13.899,125.205,13.15,125.205,13.15l0.658,0.057c-2.144,25.052-9.474,55.063-30.079,75.679c-20.82,20.809-51.239,28.082-76.439,30.135c-26.255,2.156-48.301-19.89-46.145-46.145C103.505,383.022,110.098,354.566,128.365,333.939z"/><line x1="256" y1="136" x2="256" y2="447" stroke="#333" stroke-width="12"/></svg>
