<?xml version="1.0" encoding="iso-8859-1"?><svg height="800px" width="800px" version="1.1" xmlns="http://www.w3.org/2000/svg" viewBox="0 0 512 512" xml:space="preserve"><path style="fill:#D2E3F7;" d="M431.618,256.441c38.19,4.594,67.795,37.082,67.795,76.518c0,42.57-34.514,77.097-77.097,77.097H89.684c-42.583,0-77.097-34.527-77.097-77.097c0-39.436,29.605-71.924,67.795-76.518c-1.712-6.382-2.631-13.078-2.631-19.989c0-42.583,34.514-77.097,77.097-77.097c9.025,0,17.698,1.573,25.754,4.431c7.074-35.27,38.228-61.841,75.574-61.841c37.309,0,68.437,26.509,75.561,61.728c7.955-2.782,16.502-4.317,25.414-4.317c42.583,0,77.097,34.514,77.097,77.097C434.248,243.362,433.33,250.059,431.618,256.441z"/></svg>
