<?xml version="1.0" encoding="iso-8859-1"?><svg height="800px" width="800px" version="1.1" xmlns="http://www.w3.org/2000/svg" viewBox="0 0 512.001 512.001" xml:space="preserve"><path style="fill:#B5E06C;" d="M265.632,212.556c9.889,27.593,13.713,65.886,11.228,87.157c-3.876,33.22-27.966,57.697-53.821,54.684c-20.305-2.369-35.653-21.001-39.426-44.988c-20.936,12.284-45.078,12.232-59.783-1.983c-18.722-18.078-15.052-52.237,8.189-76.29c14.872-15.4,46.92-36.722,74.538-46.559c-28.842-5.215-63.929-21.052-81.105-33.838c-26.833-19.97-35.988-53.087-20.447-73.972c12.206-16.391,36.014-20.37,58.675-11.64c-0.167-24.271,11.949-45.156,31.597-50.782c25.031-7.172,52.778,13.082,61.984,45.233c5.897,20.589,8.344,58.997,3.052,87.839c18.94-22.378,50.203-44.834,69.864-53.319c30.696-13.262,63.954-4.622,74.268,19.275c8.099,18.773-0.361,41.37-19.249,56.628c21.104,12,33.13,32.924,28.185,52.765c-6.309,25.25-37.726,39.156-70.173,31.057c-20.756-5.176-55.199-22.237-77.526-41.216C265.67,212.582,265.645,212.569,265.632,212.556z"/></svg>
