<?xml version="1.0" encoding="iso-8859-1"?><svg height="800px" width="800px" version="1.1" xmlns="http://www.w3.org/2000/svg" viewBox="0 0 512 512" xml:space="preserve"><path style="fill:#F0C419;" d="M256,89.759c18.835,0,34.101,15.266,34.101,34.101c0,18.824-15.266,34.09-34.101,34.09c-18.824,0-34.09-15.266-34.09-34.09C221.911,105.025,237.177,89.759,256,89.759z"/><path style="fill:#F78A68;" d="M244.374,242.503c-16.479-3.357-30.414-13.723-38.578-27.835c-20.013-0.012-39.473-10.389-50.204-28.977c-10.731-18.576-9.989-40.627,0-57.967c-9.989-17.351-10.731-39.39,0-57.978c10.731-18.576,30.191-28.954,50.204-28.977C215.821,23.441,234.538,11.779,256,11.779s40.18,11.662,50.204,28.989c20.013,0.024,39.473,10.401,50.204,28.977c10.731,18.588,9.989,40.627,0,57.978c9.989,17.339,10.731,39.39,0,57.967c-10.731,18.588-30.191,28.966-50.204,28.977c-10.024,17.328-28.742,29.001-50.204,29.001C252.019,243.669,248.132,243.269,244.374,242.503z"/><line x1="256" y1="243" x2="256" y2="480" stroke="#B5E06C" stroke-width="18" stroke-linecap="round"/><path style="fill:#B5E06C;" d="M242.289,462.896c0,0,4.629-67.143,77.143-56.588C307.724,478.634,242.289,462.896,242.289,462.896z"/></svg>
