<?xml version="1.0" encoding="iso-8859-1"?><svg height="800px" width="800px" version="1.1" xmlns="http://www.w3.org/2000/svg" viewBox="0 0 512 512" xml:space="preserve"><path style="fill:#F0C419;" d="M256.006,94.571c89.148,0,161.423,72.274,161.423,161.435c0,89.148-72.275,161.423-161.423,161.423c-89.161,0-161.435-72.275-161.435-161.423C94.571,166.845,166.845,94.571,256.006,94.571z"/><line x1="256" y1="12" x2="256" y2="50" stroke="#F0C419" stroke-width="20" stroke-linecap="round"/><line x1="256" y1="462" x2="256" y2="500" stroke="#F0C419" stroke-width="20" stroke-linecap="round"/><line x1="12" y1="256" x2="50" y2="256" stroke="#F0C419" stroke-width="20" stroke-linecap="round"/><line x1="462" y1="256" x2="500" y2="256" stroke="#F0C419" stroke-width="20" stroke-linecap="round"/><line x1="88" y1="88" x2="116" y2="116" stroke="#F0C419" stroke-width="20" stroke-linecap="round"/><line x1="396" y1="396" x2="424" y2="424" stroke="#F0C419" stroke-width="20" stroke-linecap="round"/><line x1="88" y1="424" x2="116" y2="396" stroke="#F0C419" stroke-width="20" stroke-linecap="round"/><line x1="396" y1="116" x2="424" y2="88" stroke="#F0C419" stroke-width="20" stroke-linecap="round"/></svg>
