<?xml version="1.0" encoding="iso-8859-1"?><svg height="800px" width="800px" version="1.1" xmlns="http://www.w3.org/2000/svg" viewBox="0 0 512 512" xml:space="preserve"><path style="fill:#77C4D3;" d="M203.975,355.185l-3.508,39.977h233.361l-7.856-89.615l-9-102.638l-3.429-39.08v-46.993H190.325l30.439,46.993L208.57,302.757L203.975,355.185z"/><path style="fill:#F0DF9E;" d="M208.57,302.757l12.194-138.927h192.779l3.429,39.08l9,102.638l7.856,89.615H200.467l3.508-39.977L208.57,302.757z M317.148,330.148c27.974,0,50.646-22.673,50.646-50.646s-22.673-50.646-50.646-50.646c-27.963,0-50.646,22.673-50.646,50.646S289.185,330.148,317.148,330.148z"/><path style="fill:#F78A68;" d="M367.794,279.501H266.501c0-27.974,22.684-50.646,50.646-50.646C345.122,228.855,367.794,251.528,367.794,279.501z"/><path style="fill:#F0C419;" d="M266.501,279.501h101.293c0,27.974-22.673,50.646-50.646,50.646C289.185,330.148,266.501,307.475,266.501,279.501z"/><polygon style="fill:#DBB67E;" points="103.87,236.913 208.57,302.757 203.975,355.185 78.979,276.587 "/><polygon style="fill:#77C4D3;" points="84.022,171.17 103.87,236.913 78.979,276.587 11.207,287.235 "/></svg>
