<svg xmlns="http://www.w3.org/2000/svg" viewBox="0 0 1600 900" fill="none">
  <defs>
    <linearGradient id="bg" x1="800" y1="0" x2="800" y2="900" gradientUnits="userSpaceOnUse">
      <stop stop-color="#09100B"/>
      <stop offset="1" stop-color="#020402"/>
    </linearGradient>
    <linearGradient id="water" x1="800" y1="180" x2="800" y2="820" gradientUnits="userSpaceOnUse">
      <stop stop-color="#1D332B"/>
      <stop offset="1" stop-color="#0A1310"/>
    </linearGradient>
  </defs>
  <rect width="1600" height="900" fill="url(#bg)"/>
  <ellipse cx="800" cy="640" rx="420" ry="140" fill="url(#water)" opacity="0.9"/>
  <ellipse cx="800" cy="640" rx="520" ry="176" stroke="#C5F17F" stroke-opacity="0.22"/>
  <ellipse cx="800" cy="640" rx="340" ry="108" stroke="#FFFFFF" stroke-opacity="0.12"/>
  <ellipse cx="800" cy="640" rx="250" ry="80" stroke="#C5F17F" stroke-opacity="0.18"/>
  <path d="M800 200V620" stroke="#C5F17F" stroke-opacity="0.55" stroke-width="6"/>
  <path d="M800 200C830 310 850 390 850 470C850 550 830 600 800 620C770 600 750 550 750 470C750 390 770 310 800 200Z" fill="#0F1813" stroke="#FFFFFF" stroke-opacity="0.1"/>
  <path d="M680 514C740 496 860 496 920 514" stroke="#FFFFFF" stroke-opacity="0.12"/>
  <path d="M620 554C710 532 890 532 980 554" stroke="#FFFFFF" stroke-opacity="0.1"/>
  <circle cx="800" cy="200" r="10" fill="#C5F17F" fill-opacity="0.7"/>
  <circle cx="800" cy="640" r="8" fill="#C5F17F" fill-opacity="0.45"/>
  <rect x="1040" y="232" width="184" height="72" rx="10" fill="#111812" stroke="#C5F17F" stroke-opacity="0.32"/>
  <path d="M1076 266H1188" stroke="#C5F17F" stroke-opacity="0.68"/>
  <path d="M1076 279H1150" stroke="#C5F17F" stroke-opacity="0.34"/>
</svg>
