<svg xmlns="http://www.w3.org/2000/svg" viewBox="0 0 1600 1200" fill="none">
  <defs>
    <linearGradient id="bg" x1="800" y1="0" x2="800" y2="1200" gradientUnits="userSpaceOnUse">
      <stop stop-color="#0A120D"/>
      <stop offset="1" stop-color="#020402"/>
    </linearGradient>
    <linearGradient id="horizon" x1="0" y1="420" x2="1600" y2="420" gradientUnits="userSpaceOnUse">
      <stop stop-color="#18221B"/>
      <stop offset="0.5" stop-color="#233126"/>
      <stop offset="1" stop-color="#18221B"/>
    </linearGradient>
    <linearGradient id="fieldA" x1="160" y1="520" x2="1440" y2="1080" gradientUnits="userSpaceOnUse">
      <stop stop-color="#28392C"/>
      <stop offset="1" stop-color="#101611"/>
    </linearGradient>
    <linearGradient id="fieldB" x1="260" y1="580" x2="1320" y2="1160" gradientUnits="userSpaceOnUse">
      <stop stop-color="#1D2B21"/>
      <stop offset="1" stop-color="#0E1510"/>
    </linearGradient>
    <linearGradient id="accent" x1="0" y1="0" x2="1600" y2="1200" gradientUnits="userSpaceOnUse">
      <stop stop-color="#C5F17F" stop-opacity="0.45"/>
      <stop offset="1" stop-color="#C5F17F" stop-opacity="0"/>
    </linearGradient>
  </defs>
  <rect width="1600" height="1200" fill="url(#bg)"/>
  <rect y="390" width="1600" height="70" fill="url(#horizon)" opacity="0.95"/>
  <path d="M0 475L1600 420V1200H0V475Z" fill="#070A08"/>
  <path d="M0 560L1600 470V1200H0V560Z" fill="url(#fieldA)"/>
  <path d="M0 660L1600 540V1200H0V660Z" fill="url(#fieldB)"/>
  <path d="M0 745L1600 615V1200H0V745Z" fill="#162019"/>
  <path d="M0 820L1600 700V1200H0V820Z" fill="#111812"/>
  <path d="M0 895L1600 785V1200H0V895Z" fill="#0B100C"/>
  <path d="M0 965L1600 875V1200H0V965Z" fill="#070A08"/>
  <g opacity="0.3" stroke="#C5F17F">
    <path d="M800 420L60 1200"/>
    <path d="M800 420L240 1200"/>
    <path d="M800 420L420 1200"/>
    <path d="M800 420L600 1200"/>
    <path d="M800 420L800 1200"/>
    <path d="M800 420L1000 1200"/>
    <path d="M800 420L1180 1200"/>
    <path d="M800 420L1360 1200"/>
    <path d="M800 420L1540 1200"/>
  </g>
  <g opacity="0.16" stroke="#FFFFFF">
    <path d="M0 520H1600"/>
    <path d="M0 630H1600"/>
    <path d="M0 735H1600"/>
    <path d="M0 840H1600"/>
    <path d="M0 940H1600"/>
    <path d="M0 1035H1600"/>
  </g>
  <g opacity="0.38" fill="#C5F17F">
    <circle cx="540" cy="520" r="5"/>
    <circle cx="920" cy="610" r="5"/>
    <circle cx="660" cy="760" r="5"/>
    <circle cx="1150" cy="860" r="5"/>
    <circle cx="790" cy="950" r="5"/>
  </g>
  <g opacity="0.18" stroke="url(#accent)">
    <path d="M520 520H910"/>
    <path d="M660 760H1040"/>
    <path d="M790 950H1150"/>
  </g>
  <rect x="1040" y="348" width="190" height="50" rx="8" fill="#111812" stroke="#C5F17F" stroke-opacity="0.35"/>
  <path d="M1080 373H1190" stroke="#C5F17F" stroke-opacity="0.7"/>
  <path d="M1080 386H1160" stroke="#C5F17F" stroke-opacity="0.35"/>
</svg>
