<svg xmlns="http://www.w3.org/2000/svg" viewBox="0 0 1600 1200" fill="none">
  <defs>
    <linearGradient id="bg" x1="800" y1="0" x2="800" y2="1200" gradientUnits="userSpaceOnUse">
      <stop stop-color="#09100B"/>
      <stop offset="1" stop-color="#020402"/>
    </linearGradient>
    <linearGradient id="ground" x1="0" y1="680" x2="1600" y2="1120" gradientUnits="userSpaceOnUse">
      <stop stop-color="#1E2B21"/>
      <stop offset="1" stop-color="#0A0E0A"/>
    </linearGradient>
  </defs>
  <rect width="1600" height="1200" fill="url(#bg)"/>
  <path d="M0 710H1600V1200H0V710Z" fill="url(#ground)"/>
  <path d="M190 450H620V820H190V450Z" fill="#101611" stroke="#FFFFFF" stroke-opacity="0.08"/>
  <path d="M660 390H1110V820H660V390Z" fill="#131A14" stroke="#C5F17F" stroke-opacity="0.2"/>
  <path d="M1150 480H1410V820H1150V480Z" fill="#101611" stroke="#FFFFFF" stroke-opacity="0.08"/>
  <path d="M240 520H570" stroke="#FFFFFF" stroke-opacity="0.12"/>
  <path d="M240 590H570" stroke="#FFFFFF" stroke-opacity="0.12"/>
  <path d="M240 660H570" stroke="#FFFFFF" stroke-opacity="0.12"/>
  <path d="M710 470H1060" stroke="#FFFFFF" stroke-opacity="0.12"/>
  <path d="M710 560H1060" stroke="#FFFFFF" stroke-opacity="0.12"/>
  <path d="M710 650H1060" stroke="#FFFFFF" stroke-opacity="0.12"/>
  <path d="M1190 560H1370" stroke="#FFFFFF" stroke-opacity="0.12"/>
  <path d="M1190 640H1370" stroke="#FFFFFF" stroke-opacity="0.12"/>
  <path d="M320 450V820" stroke="#C5F17F" stroke-opacity="0.18"/>
  <path d="M830 390V820" stroke="#C5F17F" stroke-opacity="0.2"/>
  <path d="M940 390V820" stroke="#C5F17F" stroke-opacity="0.2"/>
  <path d="M1260 480V820" stroke="#C5F17F" stroke-opacity="0.18"/>
  <path d="M120 820H1480" stroke="#FFFFFF" stroke-opacity="0.08"/>
  <path d="M170 890H1430" stroke="#FFFFFF" stroke-opacity="0.06"/>
  <path d="M220 970H1380" stroke="#FFFFFF" stroke-opacity="0.04"/>
  <rect x="960" y="248" width="170" height="72" rx="10" fill="#111812" stroke="#C5F17F" stroke-opacity="0.35"/>
  <path d="M995 282H1098" stroke="#C5F17F" stroke-opacity="0.7"/>
  <path d="M995 295H1064" stroke="#C5F17F" stroke-opacity="0.36"/>
</svg>
