<?xml version="1.0" encoding="iso-8859-1"?><svg height="800px" width="800px" version="1.1" xmlns="http://www.w3.org/2000/svg" viewBox="0 0 511.999 511.999" xml:space="preserve"><path style="fill:#FB7B76;" d="M408.428,408.161c-58.58,58.58-163.063,49.08-233.355-21.212c-51.913-51.913-70.67-122.461-53.347-179.397c6.134-20.179,16.801-38.646,32.124-53.969s33.79-25.99,53.969-32.124c56.947-17.323,127.483,1.433,179.397,53.336C457.508,245.099,467.009,349.581,408.428,408.161z"/><circle cx="290" cy="220" r="28" fill="#333"/><circle cx="370" cy="300" r="22" fill="#333"/><circle cx="215" cy="330" r="22" fill="#333"/><line x1="290" y1="175" x2="290" y2="390" stroke="#333" stroke-width="10"/><path style="fill:#666666;" d="M207.797,120.027c-4.534-2.678-8.823-5.978-12.723-9.878c-9.312-9.312-15.145-20.768-17.501-32.779c-3.978-20.19,1.856-41.935,17.501-57.58s37.39-21.479,57.58-17.501c12.012,2.356,23.468,8.189,32.779,17.501c4.477,4.466,8.381,9.498,11.594,14.95l-0.022,1.433c-20.179,6.134-38.646,16.801-53.969,32.124s-25.99,33.79-32.124,53.969z"/></svg>
